<svg id="visual" viewBox="0 0 1280 720" width="1280" height="720" xmlns="http://www.w3.org/2000/svg" xmlns:xlink="http://www.w3.org/1999/xlink" version="1.1"><rect x="0" y="0" width="1280" height="720" fill="#fefefe"></rect><path d="M873 720L843.2 690C813.3 660 753.7 600 731 540C708.3 480 722.7 420 741 360C759.3 300 781.7 240 745.8 180C710 120 616 60 569 30L522 0L1280 0L1280 30C1280 60 1280 120 1280 180C1280 240 1280 300 1280 360C1280 420 1280 480 1280 540C1280 600 1280 660 1280 690L1280 720Z" fill="#81D3E5" stroke-linecap="round" stroke-linejoin="miter"></path></svg>